<svg xmlns="http://www.w3.org/2000/svg" viewBox="0 0 400 300" width="406" height="306" class="illustration styles_illustrationTablet__1DWOa"><g id="_272_businessman_flatline" data-name="#272_businessman_flatline"><rect x="273.29" y="40.1" width="57.65" height="143.35" fill="#fff"></rect><path d="M330.94,184H273.29a.5.5,0,0,1-.5-.5V40.1a.5.5,0,0,1,.5-.5h57.65a.5.5,0,0,1,.5.5V183.46A.5.5,0,0,1,330.94,184Zm-57.15-1h56.65V40.6H273.79Z" fill="#d1d3d4"></path><rect x="209.21" y="40.1" width="57.65" height="143.35" fill="#fff"></rect><path d="M266.86,184H209.21a.5.5,0,0,1-.5-.5V40.1a.5.5,0,0,1,.5-.5h57.65a.5.5,0,0,1,.5.5V183.46A.5.5,0,0,1,266.86,184Zm-57.15-1h56.65V40.6H209.71Z" fill="#d1d3d4"></path><rect x="145.13" y="40.1" width="57.65" height="143.35" fill="#fff"></rect><path d="M202.79,184H145.13a.51.51,0,0,1-.5-.5V40.1a.51.51,0,0,1,.5-.5h57.66a.51.51,0,0,1,.5.5V183.46A.51.51,0,0,1,202.79,184Zm-57.16-1h56.66V40.6H145.63Z" fill="#d1d3d4"></path><rect x="81.06" y="40.1" width="57.65" height="143.35" fill="#fff"></rect><path d="M138.71,184H81.06a.5.5,0,0,1-.5-.5V40.1a.5.5,0,0,1,.5-.5h57.65a.5.5,0,0,1,.5.5V183.46A.5.5,0,0,1,138.71,184Zm-57.15-1h56.65V40.6H81.56Z" fill="#d1d3d4"></path><line x1="258.76" y1="64.79" x2="235.18" y2="87.61" fill="#fff"></line><path d="M235.18,88.11a.51.51,0,0,1-.36-.15.51.51,0,0,1,0-.71l23.59-22.82a.49.49,0,0,1,.7,0,.5.5,0,0,1,0,.71L235.53,88A.47.47,0,0,1,235.18,88.11Z" fill="#d1d3d4"></path><line x1="188.41" y1="62.4" x2="164.83" y2="85.23" fill="#fff"></line><path d="M164.83,85.73a.5.5,0,0,1-.35-.86L188.06,62a.5.5,0,1,1,.69.72L165.17,85.59A.49.49,0,0,1,164.83,85.73Z" fill="#d1d3d4"></path><line x1="249.94" y1="92.8" x2="230.75" y2="110.2" fill="#fff"></line><path d="M230.75,110.7a.5.5,0,0,1-.33-.87L249.6,92.42a.51.51,0,0,1,.68.75l-19.19,17.4A.5.5,0,0,1,230.75,110.7Z" fill="#d1d3d4"></path><line x1="310.98" y1="53.84" x2="286.12" y2="72.47" fill="#fff"></line><path d="M286.12,73a.51.51,0,0,1-.4-.2.5.5,0,0,1,.1-.7l24.86-18.63a.5.5,0,0,1,.7.1.51.51,0,0,1-.1.7L286.42,72.87A.49.49,0,0,1,286.12,73Z" fill="#d1d3d4"></path><line x1="188.41" y1="110.53" x2="169.03" y2="127.43" fill="#fff"></line><path d="M169,127.93a.48.48,0,0,1-.38-.17.49.49,0,0,1,0-.7l19.38-16.91a.5.5,0,0,1,.66.75l-19.38,16.91A.54.54,0,0,1,169,127.93Z" fill="#d1d3d4"></path><line x1="298.55" y1="107.05" x2="313.75" y2="95.95" fill="#fff"></line><path d="M298.55,107.55a.48.48,0,0,1-.4-.21.5.5,0,0,1,.1-.7l15.2-11.1a.5.5,0,0,1,.59.81l-15.2,11.1A.45.45,0,0,1,298.55,107.55Z" fill="#d1d3d4"></path><line x1="109.89" y1="50.13" x2="91.86" y2="61.06" fill="#fff"></line><path d="M91.86,61.56a.48.48,0,0,1-.42-.24.49.49,0,0,1,.16-.68l18-10.94a.5.5,0,0,1,.52.86l-18,10.93A.48.48,0,0,1,91.86,61.56Z" fill="#d1d3d4"></path><line x1="232.35" y1="53.27" x2="222.3" y2="62.4" fill="#fff"></line><path d="M222.3,62.9a.49.49,0,0,1-.37-.16.5.5,0,0,1,0-.71L232,52.9a.49.49,0,0,1,.7,0,.5.5,0,0,1,0,.71l-10.05,9.12A.5.5,0,0,1,222.3,62.9Z" fill="#d1d3d4"></path><path d="M352.16,229.26H63.37a.5.5,0,0,1-.5-.5.5.5,0,0,1,.5-.5H352.16a.5.5,0,0,1,.5.5A.5.5,0,0,1,352.16,229.26Z" fill="#d1d3d4"></path><path d="M323.07,114c-3.17-1.2-60.49-4.26-64,0-10.91,13.24-9.59,51.25-9.59,51.25l68.83-4.11S326.25,115.16,323.07,114Z" fill="#fff"></path><path d="M249.48,165.72a.46.46,0,0,1-.33-.13.53.53,0,0,1-.17-.35,187.47,187.47,0,0,1,.71-20.72c1.38-14.92,4.41-25.3,9-30.87,3.78-4.6,61.23-1.4,64.56-.15h0c.76.29,2.36.89-.87,24.55-1.57,11.51-3.55,23-3.57,23.14a.5.5,0,0,1-.47.41l-68.83,4.12Zm31.35-53.42c-11,0-20.16.52-21.37,2-10,12.11-9.59,45.83-9.49,50.4l67.92-4.06c3.74-21.74,6.62-44.85,5-46.2C320.62,113.61,298.38,112.3,280.83,112.3Z" fill="#d1d3d4"></path><path d="M318.31,116.48s-10.05,2.61-12.16,43.62" fill="#fff"></path><path d="M306.15,160.6h0a.5.5,0,0,1-.47-.53c2.11-40.9,12.11-44,12.54-44.08a.5.5,0,1,1,.25,1c-.13,0-9.74,3.38-11.79,43.16A.51.51,0,0,1,306.15,160.6Z" fill="#d1d3d4"></path><rect x="155.86" y="147.61" width="190.94" height="8.16" fill="#fff"></rect><path d="M346.81,156.28H155.86a.51.51,0,0,1-.5-.5v-8.17a.51.51,0,0,1,.5-.5h191a.51.51,0,0,1,.5.5v8.17A.51.51,0,0,1,346.81,156.28Zm-190.45-1h190v-7.17H156.36Z" fill="#d1d3d4"></path><rect x="159.75" y="155.78" width="183.18" height="85.72" fill="#fff"></rect><path d="M342.92,242H159.75a.5.5,0,0,1-.5-.5V155.78a.5.5,0,0,1,.5-.5H342.92a.5.5,0,0,1,.5.5V241.5A.5.5,0,0,1,342.92,242Zm-182.67-1H342.42V156.28H160.25Z" fill="#d1d3d4"></path><polygon points="228.65 147.61 186.07 147.61 189.77 135.07 232.35 135.07 228.65 147.61" fill="#fff"></polygon><path d="M228.65,148.11H186.07a.48.48,0,0,1-.4-.2.5.5,0,0,1-.08-.44l3.7-12.54a.51.51,0,0,1,.48-.36h42.58a.48.48,0,0,1,.4.2.47.47,0,0,1,.08.44l-3.7,12.54A.49.49,0,0,1,228.65,148.11Zm-41.91-1h41.53l3.41-11.54H190.15Z" fill="#d1d3d4"></path><polygon points="232.35 135.07 235.79 147.61 228.65 147.61 232.35 135.07" fill="#d1d3d4"></polygon><path d="M235.79,148.11h-7.14a.48.48,0,0,1-.4-.2.47.47,0,0,1-.08-.44l3.7-12.54a.55.55,0,0,1,.49-.36.49.49,0,0,1,.47.37l3.44,12.54a.49.49,0,0,1-.48.63Zm-6.47-1h5.81l-2.8-10.21Z" fill="#d1d3d4"></path><path d="M130.54,158.41a16,16,0,0,1-1.36,3.21,9.57,9.57,0,0,1-2.53,3c-1.7,1.28-4.77,1.83-6-.41a5.85,5.85,0,0,1-.57-2.48c0-5.84,1.36-12,2-17.89a1.73,1.73,0,0,1,.18-.71,1.8,1.8,0,0,1,.66-.56l5.13-3C129.16,146.08,132.52,151.74,130.54,158.41Z" fill="#fff"></path><path d="M123.41,166.3a4.56,4.56,0,0,1-.92-.09,3.36,3.36,0,0,1-2.29-1.7,6.44,6.44,0,0,1-.64-2.7,81.34,81.34,0,0,1,1.13-11.6c.3-2.1.62-4.27.83-6.37a1.76,1.76,0,0,1,1.09-1.66l5.12-3a.51.51,0,0,1,.77.35,53.75,53.75,0,0,0,1.44,5.62c1.3,4.43,2.52,8.61,1.09,13.41h0a16.21,16.21,0,0,1-1.4,3.32,10.2,10.2,0,0,1-2.67,3.22A6.13,6.13,0,0,1,123.41,166.3Zm4.22-25.88-4.5,2.65a1.56,1.56,0,0,0-.48.37,1.29,1.29,0,0,0-.1.51c-.22,2.11-.53,4.29-.84,6.4a81.43,81.43,0,0,0-1.12,11.43,5.41,5.41,0,0,0,.52,2.24,2.29,2.29,0,0,0,1.6,1.18,4.78,4.78,0,0,0,3.63-.94,8.9,8.9,0,0,0,2.39-2.9,14.87,14.87,0,0,0,1.31-3.1c1.35-4.51.16-8.55-1.09-12.83C128.47,143.81,128,142.15,127.63,140.42Zm2.91,18h0Z" fill="#231f20"></path><path d="M130.81,166.19H114a.5.5,0,0,1-.5-.5v-3a5.37,5.37,0,0,1,5.36-5.37H126a5.37,5.37,0,0,1,5.36,5.37v3A.5.5,0,0,1,130.81,166.19Zm-16.31-1h15.8v-2.51a4.36,4.36,0,0,0-4.35-4.36h-7.1a4.36,4.36,0,0,0-4.35,4.36Z" fill="#fff"></path><path d="M126,157.3a5.37,5.37,0,0,1,5.36,5.37v3a.5.5,0,0,1-.5.5H114a.5.5,0,0,1-.5-.5v-3a5.37,5.37,0,0,1,5.36-5.37H126m-11.45,7.88h15.8v-2.51a4.36,4.36,0,0,0-4.35-4.36h-7.1a4.36,4.36,0,0,0-4.35,4.36v2.51M126,156.27h-7.1a6.41,6.41,0,0,0-6.4,6.4v3a1.54,1.54,0,0,0,1.54,1.53h16.82a1.54,1.54,0,0,0,1.54-1.53v-3a6.41,6.41,0,0,0-6.4-6.4Zm-10.42,7.88v-1.48a3.32,3.32,0,0,1,3.32-3.32H126a3.32,3.32,0,0,1,3.32,3.32v1.48Z" fill="#231f20"></path><path d="M128.67,156.66a11.06,11.06,0,0,1-4.9,5.65,1,1,0,0,1-.91.16c-.42-.23-.32-.85-.15-1.29a17.68,17.68,0,0,1,2.45-4.39s-2.87-2.62-1.3-4.71" fill="#fff"></path><path d="M123.12,163a1,1,0,0,1-.5-.12c-.58-.31-.73-1-.39-1.93a18.33,18.33,0,0,1,2.25-4.15c-.77-.84-2.52-3.09-1-5.07a.51.51,0,1,1,.82.62c-1.26,1.69,1.21,4,1.23,4a.52.52,0,0,1,.07.7,17.41,17.41,0,0,0-2.38,4.25,1,1,0,0,0-.09.65s.09,0,.42-.15a10.53,10.53,0,0,0,4.66-5.38.52.52,0,0,1,.67-.3.51.51,0,0,1,.3.66,11.64,11.64,0,0,1-5.12,5.92A1.87,1.87,0,0,1,123.12,163Z" fill="#231f20"></path><rect x="90.89" y="164.53" width="63.03" height="40.75" rx="4.5" fill="#fff"></rect><path d="M149.41,205.8h-54a5,5,0,0,1-5-5V169a5,5,0,0,1,5-5h54a5,5,0,0,1,5,5v31.74A5,5,0,0,1,149.41,205.8Zm-54-40.75a4,4,0,0,0-4,4v31.74a4,4,0,0,0,4,4h54a4,4,0,0,0,4-4V169a4,4,0,0,0-4-4Z" fill="#231f20"></path><path d="M127.51,78.78S129.68,134.35,133,146l-13,5s-3-59.73-.51-66.15S127.51,78.78,127.51,78.78Z" fill="#68e1fd"></path><path d="M77.69,145.38l-3,99.52s2,2.46,8.55,2.46S92,244.05,92,244.05l10.52-74.26s11.6,63.18,12.42,73.09c0,0,10,3.16,15.51-1.24,0,0-5.78-59.39-5.93-76.16a329.22,329.22,0,0,0-2.23-33.32H79.89Z" fill="#231f20"></path><path d="M118.22,137.13l-38.33,3q1.74-15.94,3.77-31.84c1.27-9.91,1.22-21.41,7.23-29.9,2.67-3.78,7.84-8.48,12.75-7.34,4.74,1.1,10.25,4.94,14.58,7.31Z" fill="#fff"></path><path d="M79.89,140.67a.52.52,0,0,1-.51-.57c1.18-10.84,2.44-21.56,3.76-31.84.24-1.87.43-3.75.63-5.74.86-8.55,1.74-17.4,6.69-24.4,3-4.21,8.25-8.72,13.29-7.54,3.63.84,7.68,3.24,11.26,5.36,1.22.72,2.37,1.4,3.45,2a.5.5,0,0,1,.27.45v58.74a.5.5,0,0,1-.47.51l-38.33,3ZM102.1,71.42c-4.4,0-8.76,4.42-10.79,7.3-4.8,6.78-5.67,15.48-6.51,23.9-.2,2-.39,3.89-.63,5.77-1.3,10.08-2.54,20.58-3.7,31.2l37.23-2.94V78.7c-1-.57-2.09-1.2-3.21-1.87-3.52-2.08-7.5-4.44-11-5.25A6.18,6.18,0,0,0,102.1,71.42Zm16.12,65.71h0Z" fill="#231f20"></path><polygon points="106.81 78.27 103.72 80.43 105.78 81.56 102.53 116 105.97 120.51 109.89 114.59 107.82 81.84 109.48 80.06 106.81 78.27" fill="#231f20"></polygon><path d="M112.32,73s3.08,69.6,2.8,74l12.23-1s-2.87-31.47-1.77-42.75c0,0,5.78-19,1.93-24.49S112.32,73,112.32,73Z" fill="#68e1fd"></path><path d="M97.5,70S82.24,73.27,71.78,81s-23.94,27.32-23.94,32.1,22.29,24,22.29,24l6.06-9.21S63.8,113.18,65.45,109.05,78.11,96.54,78.11,96.54s1.38,12.78.83,17.46-6,31.11-5.34,38.27l10.84-2.59s.83-11.55,4.68-19.9,7.71-15.22,9.93-28.43S97.5,70,97.5,70Z" fill="#68e1fd"></path><path d="M95.51,56a54.51,54.51,0,0,1-1.73-6.85,10.39,10.39,0,0,1,1.13-6.83A4.16,4.16,0,0,1,97,40.46a2.31,2.31,0,0,1,2.57.61A6.26,6.26,0,0,1,102,39a14.24,14.24,0,0,1,7.48-1.8,9.5,9.5,0,0,1,5.93,2.28,9.52,9.52,0,0,1,2.37,5.25,14.26,14.26,0,0,1,.24,5.4c-.83,4.5-4.94,5.88-8.86,6.89a16.22,16.22,0,0,1-5.44.66,6.94,6.94,0,0,1-4.81-2.36" fill="#fff"></path><path d="M104.68,58.2c-.32,0-.65,0-1,0a7.45,7.45,0,0,1-5.17-2.54.52.52,0,0,1,.08-.73.51.51,0,0,1,.72.08,6.43,6.43,0,0,0,4.46,2.16,15.58,15.58,0,0,0,5.26-.64c3.87-1,7.71-2.33,8.49-6.48a14.33,14.33,0,0,0-.24-5.22,9.11,9.11,0,0,0-2.22-5,9.09,9.09,0,0,0-5.61-2.14,13.68,13.68,0,0,0-7.21,1.75A5.7,5.7,0,0,0,100,41.34a.52.52,0,0,1-.85,0,1.81,1.81,0,0,0-2-.45,3.75,3.75,0,0,0-1.8,1.63,9.93,9.93,0,0,0-1,6.49,32.67,32.67,0,0,0,1.2,5c.17.6.35,1.19.51,1.79a.52.52,0,0,1-1,.27c-.16-.59-.33-1.18-.5-1.77a35,35,0,0,1-1.24-5.14A11,11,0,0,1,94.47,42,4.67,4.67,0,0,1,96.81,40a2.93,2.93,0,0,1,2.67.32,7.41,7.41,0,0,1,2.3-1.77,14.73,14.73,0,0,1,7.76-1.87,10.06,10.06,0,0,1,6.26,2.42,10.16,10.16,0,0,1,2.52,5.53,15,15,0,0,1,.24,5.6c-.88,4.75-5,6.21-9.24,7.29A18.64,18.64,0,0,1,104.68,58.2Z" fill="#231f20"></path><path d="M111.57,65.55l.75,8.3s-.87,5.42-6.35,4.42a11.1,11.1,0,0,1-7.67-5.63L97.5,57.4s3.88-2.36,2.21-11a26.78,26.78,0,0,0,14.14,1.15s3,9.29,2.57,13.51S111.57,65.55,111.57,65.55Z" fill="#fff"></path><path d="M107.27,78.91a8.46,8.46,0,0,1-1.39-.13,11.5,11.5,0,0,1-8-5.92.45.45,0,0,1,0-.19L97,57.43a.51.51,0,0,1,.25-.47s3.54-2.34,2-10.45a.5.5,0,0,1,.18-.5.51.51,0,0,1,.53-.07,26.63,26.63,0,0,0,13.84,1.11.53.53,0,0,1,.59.35c.12.39,3,9.44,2.6,13.72A5.49,5.49,0,0,1,112.13,66l.71,7.82a.49.49,0,0,1,0,.12,6.67,6.67,0,0,1-2.45,4A5.32,5.32,0,0,1,107.27,78.91ZM98.81,72.5a10.66,10.66,0,0,0,7.26,5.26,4.72,4.72,0,0,0,3.7-.63,5.63,5.63,0,0,0,2-3.3l-.74-8.24a.5.5,0,0,1,.12-.38.54.54,0,0,1,.36-.18c.16,0,4-.29,4.37-4,.35-3.56-1.85-11-2.42-12.87a27.82,27.82,0,0,1-13.12-.94c1.11,7-1.48,9.74-2.34,10.44Z" fill="#231f20"></path><path d="M112,69.89s-2.13.55-4.64-1.6-2.38-3.5-2.38-3.5a10.08,10.08,0,0,0,6.63.76Z" fill="#231f20"></path><path d="M111.3,70.45A6.63,6.63,0,0,1,107,68.66c-2.63-2.26-2.57-3.76-2.55-3.92a.5.5,0,0,1,.73-.39,9.71,9.71,0,0,0,6.28.72.5.5,0,0,1,.41.07.52.52,0,0,1,.21.36l.39,4.35a.5.5,0,0,1-.37.52A3.23,3.23,0,0,1,111.3,70.45Zm-5.59-4.79a7.73,7.73,0,0,0,1.93,2.25,5.59,5.59,0,0,0,3.78,1.55l-.29-3.3A10.62,10.62,0,0,1,105.71,65.66Z" fill="#231f20"></path><path d="M107.3,53.27s2.8,4.6,2.06,5.34-2.71.15-2.71.15" fill="#fff"></path><path d="M108.12,59.49a6,6,0,0,1-1.62-.25.51.51,0,0,1-.33-.63.5.5,0,0,1,.62-.33c.7.21,1.85.34,2.21,0,.13-.4-.85-2.63-2.12-4.73a.49.49,0,0,1,.16-.68.5.5,0,0,1,.69.17c1.37,2.24,2.82,5.1,2,5.95A2.22,2.22,0,0,1,108.12,59.49Z" fill="#231f20"></path><path d="M107.57,62.52h-.08a5.75,5.75,0,0,1-4.09-2,.49.49,0,0,1,0-.7.5.5,0,0,1,.71,0,4.75,4.75,0,0,0,3.37,1.65,6.2,6.2,0,0,0,4-1.73.5.5,0,0,1,.7,0,.5.5,0,0,1,0,.71A7.37,7.37,0,0,1,107.57,62.52Z" fill="#231f20"></path><ellipse cx="103.81" cy="52.5" rx="1.22" ry="0.53" transform="translate(49.42 155.33) rotate(-88.95)" fill="#231f20"></ellipse><ellipse cx="111.49" cy="52.08" rx="1.22" ry="0.53" transform="translate(57.39 162.6) rotate(-88.95)" fill="#231f20"></ellipse><path d="M100.86,55a7.28,7.28,0,0,0-2-2,2.49,2.49,0,0,0-1.42-.54,2.18,2.18,0,0,0-1.17.41,4.4,4.4,0,0,0-1.94,3,3.34,3.34,0,0,0,.14,1.69,3.88,3.88,0,0,0,1.78,2,11.77,11.77,0,0,0,2.52,1" fill="#fff"></path><path d="M98.81,61a.39.39,0,0,1-.15,0A12.12,12.12,0,0,1,96,60a4.41,4.41,0,0,1-2-2.22,3.84,3.84,0,0,1-.17-1.95A4.9,4.9,0,0,1,96,52.41a2.75,2.75,0,0,1,1.45-.5h0a3.05,3.05,0,0,1,1.69.64,7.75,7.75,0,0,1,2.1,2.17.51.51,0,0,1-.86.56A7,7,0,0,0,98.6,53.4a1.92,1.92,0,0,0-1.11-.46,1.78,1.78,0,0,0-.9.33,3.91,3.91,0,0,0-1.71,2.66A2.84,2.84,0,0,0,95,57.37a3.32,3.32,0,0,0,1.55,1.68A11,11,0,0,0,99,60a.51.51,0,0,1,.35.64A.5.5,0,0,1,98.81,61Z" fill="#231f20"></path><path d="M71.18,135.54s4.58,3.1,6.37,3.58,8.1-3.81,9.59-4,5.82,1.59,6.44.77-1.72-2.55-4.13-3.17c0,0,5.17,1.59,6,1.45s2-.55,1-1.86-5.3-2.27-5.3-2.27,6.34,2,6.61,1-2.27-3.16-5.37-3.58c0,0,5.82,1.72,5.39,0s-7.38-3-10.82-1.92-8.4,4.13-9.09,4-1.7-1.64-1.7-1.64Z" fill="#fff"></path><path d="M77.87,139.68a1.53,1.53,0,0,1-.45-.06c-1.85-.5-6.34-3.53-6.53-3.66a.51.51,0,0,1-.15-.71l5-7.61a.51.51,0,0,1,.43-.23.57.57,0,0,1,.43.22c.43.63,1.1,1.37,1.39,1.42a22.6,22.6,0,0,0,2.84-1.32,44.91,44.91,0,0,1,6-2.65,16.45,16.45,0,0,1,10.26,1,2.24,2.24,0,0,1,1.22,1.3,1,1,0,0,1-.26,1,2,2,0,0,1-1.24.39A5.11,5.11,0,0,1,98,130a1.53,1.53,0,0,1,.3,1.24.78.78,0,0,1-.4.48,2.27,2.27,0,0,1-1.13.14l.14.17a1.66,1.66,0,0,1,.37,1.63c-.21.54-.8.89-1.73,1.05a6.84,6.84,0,0,1-1.9-.27,2.16,2.16,0,0,1,.5.77,1.08,1.08,0,0,1-.13,1c-.54.71-1.87.42-4-.1a11.28,11.28,0,0,0-2.79-.47A17.77,17.77,0,0,0,84,137.16C81.23,138.62,79.14,139.68,77.87,139.68Zm-6-4.29a32.27,32.27,0,0,0,5.8,3.23c.88.24,3.83-1.33,5.78-2.37a15.19,15.19,0,0,1,3.6-1.64,10.68,10.68,0,0,1,3.17.49,8.9,8.9,0,0,0,3,.45c0-.31-1.27-1.45-3.16-2.11l-.74-.22a.53.53,0,0,1-.34-.64.51.51,0,0,1,.62-.36,7.17,7.17,0,0,1,.71.22,31.18,31.18,0,0,0,5.07,1.22c.62-.1.9-.29,1-.41s0-.31-.25-.63a6.21,6.21,0,0,0-2.54-1.37c-1-.25-1.89-.53-2.5-.72a.51.51,0,0,1-.34-.62.51.51,0,0,1,.61-.37,24.7,24.7,0,0,1,2.46.69,12.94,12.94,0,0,0,3.51.58,1.12,1.12,0,0,0-.18-.34,6.92,6.92,0,0,0-2.93-2c-.74-.16-1.42-.34-1.88-.48a.52.52,0,0,1,.21-1,9.06,9.06,0,0,1,1.91.48,5.84,5.84,0,0,0,2.94.16,1.72,1.72,0,0,0-.75-.65,15.43,15.43,0,0,0-9.45-.91,44.91,44.91,0,0,0-5.82,2.59c-2.25,1.13-3,1.51-3.52,1.41a3.47,3.47,0,0,1-1.58-1.24Z" fill="#231f20"></path><path d="M77.66,244.53a35.35,35.35,0,0,1-1.92,9.63c-1.66,4.13-1.52,6.33,0,7.71s9.35,1.51,13.07-1-.94-9-1-11.56a52.3,52.3,0,0,1,.55-6.47Z" fill="#231f20"></path><path d="M116.65,242.88s-1.79,6.6-1.24,11,1.24,3.85,1.24,3.85l9.08,0,.55-1.67a39.55,39.55,0,0,0,8.67,2.48c4.13.55,13.21,0,12.94-1.79s-10.32-5-12.94-8.12-8.81-11.29-8.81-11.29Z" fill="#231f20"></path><path d="M115.12,147.55a.5.5,0,0,1-.48-.34.52.52,0,0,1,.3-.66c1.94-.71,9.71-1,11.86-1-.24-3.46-1.52-22.61-1.35-30.42.17-8.13.88-23.5,1.11-24.19a.51.51,0,0,1,1,.3c-.18.9-.87,15.31-1.06,23.91s1.37,30.64,1.38,30.86a.52.52,0,0,1-.13.39.51.51,0,0,1-.37.16c-2.78.07-10.37.37-12.06,1Z" fill="#231f20"></path><path d="M67.5,106.57a.53.53,0,0,1-.37-.15.51.51,0,0,1,0-.73c.1-.1,10-9.85,16.07-13.77a.51.51,0,0,1,.71.15.51.51,0,0,1-.15.71C77.83,96.65,68,106.33,67.86,106.43A.54.54,0,0,1,67.5,106.57Z" fill="#231f20"></path></g></svg>